<?xml version="1.0" encoding="UTF-8" standalone="no"?><!DOCTYPE svg PUBLIC "-//W3C//DTD SVG 1.1//EN" "http://www.w3.org/Graphics/SVG/1.1/DTD/svg11.dtd"><svg width="100%" height="100%" viewBox="0 0 4134 1004" version="1.1" xmlns="http://www.w3.org/2000/svg" xmlns:xlink="http://www.w3.org/1999/xlink" xml:space="preserve" xmlns:serif="http://www.serif.com/" style="fill-rule:evenodd;clip-rule:evenodd;"><g transform="matrix(519.245,0,0,519.245,645.697,690.714)"><path d="M0.43,-0.7l0.115,0l0,0.7l-0.165,-0l-0.206,-0.579l-0.004,0l0,0.579l-0.115,-0l0,-0.7l0.188,0l0.183,0.515l0.004,0l0,-0.515Z" style="fill-rule:nonzero;"/></g><g transform="matrix(519.245,0,0,519.245,957.244,690.714)"><path d="M0.386,-0.375c-0,0.015 -0.004,0.027 -0.011,0.034c-0.007,0.007 -0.02,0.012 -0.037,0.013l-0.033,0.003c-0.08,0.007 -0.139,0.025 -0.178,0.052c-0.038,0.028 -0.057,0.067 -0.057,0.117c-0,0.025 0.004,0.047 0.013,0.067c0.009,0.021 0.021,0.038 0.036,0.053c0.015,0.015 0.034,0.026 0.055,0.034c0.021,0.008 0.045,0.012 0.071,0.012c0.027,-0 0.052,-0.005 0.073,-0.014c0.021,-0.009 0.039,-0.023 0.054,-0.04c0.015,-0.017 0.026,-0.039 0.034,-0.064c0.008,-0.025 0.012,-0.053 0.012,-0.085l-0.053,0.123l0.03,-0c0.002,0.013 0.004,0.026 0.007,0.037c0.002,0.012 0.005,0.023 0.008,0.033l0.116,-0c-0.007,-0.028 -0.012,-0.058 -0.015,-0.09c-0.003,-0.032 -0.005,-0.066 -0.005,-0.103l0,-0.183c0,-0.026 -0.005,-0.05 -0.015,-0.071c-0.01,-0.021 -0.024,-0.04 -0.042,-0.055c-0.018,-0.015 -0.04,-0.027 -0.065,-0.035c-0.025,-0.009 -0.054,-0.013 -0.085,-0.013c-0.031,0 -0.059,0.004 -0.084,0.012c-0.026,0.008 -0.048,0.019 -0.067,0.033c-0.019,0.014 -0.033,0.031 -0.044,0.05c-0.011,0.02 -0.016,0.042 -0.016,0.065l0.117,0c0.002,-0.018 0.012,-0.033 0.029,-0.043c0.017,-0.011 0.038,-0.017 0.063,-0.017c0.028,0 0.05,0.007 0.066,0.02c0.015,0.013 0.023,0.032 0.023,0.055Zm0,0.083l0,0.088c0,0.017 -0.003,0.032 -0.009,0.047c-0.006,0.015 -0.014,0.027 -0.024,0.038c-0.011,0.011 -0.023,0.019 -0.037,0.025c-0.015,0.006 -0.03,0.009 -0.046,0.009c-0.025,-0 -0.044,-0.007 -0.058,-0.02c-0.015,-0.013 -0.022,-0.031 -0.022,-0.053c0,-0.025 0.01,-0.044 0.03,-0.058c0.019,-0.013 0.051,-0.023 0.095,-0.028l0.032,-0.004c0.028,-0.003 0.048,-0.014 0.061,-0.031c0.013,-0.017 0.019,-0.041 0.019,-0.073l-0.041,0.06Z" style="fill-rule:nonzero;"/></g><g transform="matrix(519.245,0,0,519.245,1268.79,690.714)"><path d="M0.095,-0l0.12,-0l0,-0.315c0,-0.02 0.003,-0.038 0.008,-0.054c0.005,-0.017 0.012,-0.031 0.021,-0.043c0.009,-0.012 0.02,-0.021 0.033,-0.028c0.013,-0.007 0.026,-0.01 0.041,-0.01c0.024,0 0.043,0.008 0.056,0.025c0.014,0.017 0.021,0.04 0.021,0.07l0,0.355l0.12,-0l0,-0.365c0,-0.028 -0.004,-0.053 -0.011,-0.076c-0.008,-0.023 -0.019,-0.042 -0.033,-0.058c-0.015,-0.017 -0.032,-0.029 -0.052,-0.038c-0.02,-0.009 -0.042,-0.013 -0.067,-0.013c-0.026,0 -0.049,0.005 -0.07,0.015c-0.021,0.009 -0.038,0.023 -0.052,0.042c-0.015,0.019 -0.026,0.041 -0.033,0.068c-0.008,0.027 -0.012,0.057 -0.012,0.09l0.033,-0.134l-0.008,0l0,-0.071l-0.115,0l0,0.54Z" style="fill-rule:nonzero;"/></g><g transform="matrix(519.245,0,0,519.245,1580.34,690.714)"><path d="M0.3,0.01c0.035,0 0.068,-0.007 0.098,-0.021c0.029,-0.014 0.055,-0.034 0.076,-0.059c0.021,-0.024 0.038,-0.054 0.05,-0.088c0.013,-0.034 0.019,-0.072 0.019,-0.112c0,-0.04 -0.006,-0.078 -0.019,-0.112c-0.012,-0.034 -0.029,-0.064 -0.05,-0.089c-0.021,-0.025 -0.047,-0.044 -0.077,-0.058c-0.029,-0.014 -0.062,-0.021 -0.097,-0.021c-0.035,0 -0.067,0.007 -0.097,0.021c-0.03,0.014 -0.055,0.034 -0.077,0.059c-0.021,0.025 -0.038,0.054 -0.051,0.088c-0.012,0.034 -0.018,0.072 -0.018,0.112c-0,0.04 0.006,0.078 0.018,0.112c0.013,0.034 0.03,0.063 0.051,0.088c0.022,0.025 0.047,0.045 0.077,0.059c0.03,0.014 0.062,0.021 0.097,0.021Zm-0,-0.11c-0.018,0 -0.035,-0.004 -0.05,-0.012c-0.015,-0.009 -0.028,-0.02 -0.039,-0.035c-0.011,-0.015 -0.019,-0.033 -0.025,-0.054c-0.006,-0.021 -0.009,-0.044 -0.009,-0.069c-0,-0.025 0.003,-0.048 0.009,-0.069c0.006,-0.021 0.014,-0.039 0.025,-0.054c0.011,-0.015 0.024,-0.026 0.039,-0.035c0.015,-0.008 0.032,-0.012 0.05,-0.012c0.018,0 0.035,0.004 0.05,0.013c0.015,0.008 0.028,0.02 0.039,0.035c0.011,0.015 0.019,0.032 0.025,0.053c0.006,0.021 0.009,0.044 0.009,0.069c-0,0.025 -0.003,0.048 -0.009,0.069c-0.006,0.021 -0.014,0.038 -0.025,0.053c-0.011,0.015 -0.024,0.027 -0.039,0.036c-0.015,0.008 -0.032,0.012 -0.05,0.012Z" style="fill-rule:nonzero;"/></g><g transform="matrix(519.245,0,0,519.245,1891.89,690.714)"><path d="M0.072,-0l0.15,-0l0.076,-0.355l0.004,0l0.076,0.355l0.15,-0l0.062,-0.54l-0.11,0l-0.039,0.415l-0.004,0l-0.077,-0.355l-0.12,0l-0.077,0.355l-0.004,0l-0.039,-0.415l-0.11,0l0.062,0.54Z" style="fill-rule:nonzero;"/></g><g transform="matrix(519.245,0,0,519.245,2203.43,690.714)"><path d="M0.386,-0.375c-0,0.015 -0.004,0.027 -0.011,0.034c-0.007,0.007 -0.02,0.012 -0.037,0.013l-0.033,0.003c-0.08,0.007 -0.139,0.025 -0.178,0.052c-0.038,0.028 -0.057,0.067 -0.057,0.117c-0,0.025 0.004,0.047 0.013,0.067c0.009,0.021 0.021,0.038 0.036,0.053c0.015,0.015 0.034,0.026 0.055,0.034c0.021,0.008 0.045,0.012 0.071,0.012c0.027,-0 0.052,-0.005 0.073,-0.014c0.021,-0.009 0.039,-0.023 0.054,-0.04c0.015,-0.017 0.026,-0.039 0.034,-0.064c0.008,-0.025 0.012,-0.053 0.012,-0.085l-0.053,0.123l0.03,-0c0.002,0.013 0.004,0.026 0.007,0.037c0.002,0.012 0.005,0.023 0.008,0.033l0.116,-0c-0.007,-0.028 -0.012,-0.058 -0.015,-0.09c-0.003,-0.032 -0.005,-0.066 -0.005,-0.103l0,-0.183c0,-0.026 -0.005,-0.05 -0.015,-0.071c-0.01,-0.021 -0.024,-0.04 -0.042,-0.055c-0.018,-0.015 -0.04,-0.027 -0.065,-0.035c-0.025,-0.009 -0.054,-0.013 -0.085,-0.013c-0.031,0 -0.059,0.004 -0.084,0.012c-0.026,0.008 -0.048,0.019 -0.067,0.033c-0.019,0.014 -0.033,0.031 -0.044,0.05c-0.011,0.02 -0.016,0.042 -0.016,0.065l0.117,0c0.002,-0.018 0.012,-0.033 0.029,-0.043c0.017,-0.011 0.038,-0.017 0.063,-0.017c0.028,0 0.05,0.007 0.066,0.02c0.015,0.013 0.023,0.032 0.023,0.055Zm0,0.083l0,0.088c0,0.017 -0.003,0.032 -0.009,0.047c-0.006,0.015 -0.014,0.027 -0.024,0.038c-0.011,0.011 -0.023,0.019 -0.037,0.025c-0.015,0.006 -0.03,0.009 -0.046,0.009c-0.025,-0 -0.044,-0.007 -0.058,-0.02c-0.015,-0.013 -0.022,-0.031 -0.022,-0.053c0,-0.025 0.01,-0.044 0.03,-0.058c0.019,-0.013 0.051,-0.023 0.095,-0.028l0.032,-0.004c0.028,-0.003 0.048,-0.014 0.061,-0.031c0.013,-0.017 0.019,-0.041 0.019,-0.073l-0.041,0.06Z" style="fill-rule:nonzero;"/></g><g transform="matrix(519.245,0,0,519.245,2514.98,690.714)"><path d="M0.325,-0.193l0,-0.237l0.175,0l0,-0.11l-0.175,0l0,-0.17l-0.12,0.021l0,0.149l-0.14,0l0,0.11l0.14,0l0,0.237c0,0.067 0.016,0.117 0.049,0.152c0.033,0.034 0.081,0.051 0.146,0.051c0.021,0 0.04,-0.002 0.059,-0.005c0.019,-0.003 0.036,-0.009 0.051,-0.016l0,-0.1c-0.015,0.007 -0.029,0.012 -0.044,0.015c-0.015,0.003 -0.029,0.004 -0.043,0.004c-0.033,0 -0.058,-0.008 -0.074,-0.025c-0.016,-0.017 -0.024,-0.042 -0.024,-0.076Z" style="fill-rule:nonzero;"/></g><g transform="matrix(519.245,0,0,519.245,2826.53,690.714)"><path d="M0.411,-0.15c-0.005,0.015 -0.016,0.027 -0.032,0.036c-0.015,0.009 -0.034,0.014 -0.055,0.014c-0.021,-0 -0.039,-0.004 -0.056,-0.013c-0.017,-0.008 -0.031,-0.019 -0.043,-0.035c-0.011,-0.015 -0.02,-0.033 -0.026,-0.055c-0.007,-0.021 -0.01,-0.045 -0.01,-0.071c-0,-0.025 0.003,-0.048 0.009,-0.069c0.006,-0.02 0.015,-0.037 0.025,-0.052c0.012,-0.015 0.025,-0.026 0.041,-0.033c0.015,-0.008 0.033,-0.012 0.053,-0.012c0.021,0 0.04,0.005 0.055,0.014c0.016,0.009 0.027,0.021 0.034,0.036l0.12,0c-0.004,-0.024 -0.012,-0.046 -0.024,-0.066c-0.012,-0.019 -0.027,-0.036 -0.045,-0.05c-0.019,-0.014 -0.04,-0.025 -0.064,-0.032c-0.023,-0.008 -0.049,-0.012 -0.076,-0.012c-0.036,0 -0.069,0.007 -0.1,0.021c-0.03,0.013 -0.056,0.032 -0.078,0.057c-0.022,0.025 -0.039,0.054 -0.052,0.088c-0.012,0.034 -0.018,0.071 -0.018,0.111c0,0.041 0.006,0.078 0.019,0.113c0.013,0.034 0.03,0.064 0.052,0.089c0.022,0.025 0.048,0.045 0.079,0.06c0.031,0.014 0.064,0.021 0.1,0.021c0.027,0 0.052,-0.004 0.075,-0.011c0.024,-0.008 0.045,-0.019 0.064,-0.033c0.019,-0.014 0.035,-0.031 0.048,-0.05c0.013,-0.02 0.022,-0.042 0.027,-0.066l-0.122,0Z" style="fill-rule:nonzero;"/></g><g transform="matrix(519.245,0,0,519.245,3138.07,690.714)"><path d="M0.095,-0l0.12,-0l0,-0.315c0,-0.02 0.003,-0.038 0.008,-0.054c0.005,-0.017 0.012,-0.031 0.021,-0.043c0.009,-0.012 0.02,-0.021 0.033,-0.028c0.013,-0.007 0.026,-0.01 0.041,-0.01c0.024,0 0.043,0.008 0.056,0.025c0.014,0.017 0.021,0.04 0.021,0.07l0,0.355l0.12,-0l0,-0.365c0,-0.028 -0.004,-0.053 -0.011,-0.076c-0.008,-0.023 -0.019,-0.042 -0.033,-0.058c-0.014,-0.017 -0.031,-0.029 -0.051,-0.038c-0.02,-0.009 -0.042,-0.013 -0.067,-0.013c-0.026,0 -0.049,0.005 -0.069,0.015c-0.021,0.009 -0.038,0.023 -0.052,0.042c-0.014,0.019 -0.025,0.041 -0.032,0.068c-0.008,0.027 -0.012,0.057 -0.012,0.09l0.035,-0.139l-0.008,0l0,-0.267l-0.12,0l0,0.741Z" style="fill-rule:nonzero;"/></g><g transform="matrix(519.245,0,0,519.245,3449.62,690.714)"><path d="M0.235,-0l0,-0.302c0,-0.021 0.003,-0.04 0.007,-0.057c0.005,-0.017 0.013,-0.032 0.022,-0.045c0.009,-0.012 0.02,-0.021 0.033,-0.028c0.013,-0.007 0.027,-0.01 0.042,-0.01c0.018,0 0.033,0.005 0.046,0.014c0.014,0.009 0.022,0.022 0.026,0.038l0.124,0c-0.005,-0.048 -0.022,-0.086 -0.051,-0.115c-0.028,-0.028 -0.064,-0.042 -0.108,-0.042c-0.027,0 -0.052,0.006 -0.075,0.017c-0.022,0.011 -0.041,0.027 -0.057,0.048c-0.015,0.021 -0.027,0.045 -0.036,0.075c-0.009,0.029 -0.013,0.061 -0.013,0.096l0.043,-0.156l-0.008,0l-0,-0.073l-0.115,0l-0,0.54l0.12,-0Z" style="fill-rule:nonzero;"/></g><g transform="matrix(519.245,0,0,519.245,3761.17,690.714)"><path d="M0.087,-0.15c0,0.023 0.005,0.045 0.016,0.065c0.011,0.02 0.025,0.037 0.044,0.052c0.019,0.015 0.042,0.026 0.068,0.034c0.026,0.009 0.054,0.013 0.085,0.013c0.031,-0 0.06,-0.005 0.086,-0.014c0.027,-0.009 0.049,-0.021 0.068,-0.037c0.019,-0.016 0.033,-0.035 0.043,-0.058c0.011,-0.023 0.016,-0.047 0.016,-0.074c0,-0.046 -0.016,-0.082 -0.047,-0.107c-0.031,-0.025 -0.08,-0.042 -0.146,-0.049l-0.027,-0.003c-0.025,-0.003 -0.044,-0.01 -0.055,-0.019c-0.011,-0.009 -0.017,-0.021 -0.017,-0.038c-0,-0.02 0.007,-0.036 0.022,-0.048c0.015,-0.011 0.036,-0.017 0.061,-0.017c0.025,-0 0.046,0.006 0.063,0.016c0.017,0.011 0.026,0.026 0.028,0.044l0.112,-0c-0.001,-0.023 -0.007,-0.045 -0.018,-0.064c-0.011,-0.019 -0.025,-0.036 -0.044,-0.051c-0.018,-0.014 -0.039,-0.025 -0.064,-0.033c-0.024,-0.008 -0.05,-0.012 -0.079,-0.012c-0.03,0 -0.057,0.004 -0.082,0.013c-0.024,0.009 -0.045,0.021 -0.062,0.037c-0.017,0.016 -0.031,0.035 -0.041,0.057c-0.009,0.022 -0.014,0.046 -0.014,0.073c-0,0.046 0.015,0.082 0.044,0.106c0.03,0.025 0.076,0.042 0.138,0.049l0.027,0.003c0.029,0.003 0.049,0.01 0.062,0.019c0.013,0.009 0.019,0.022 0.019,0.039c-0,0.021 -0.008,0.037 -0.024,0.049c-0.015,0.012 -0.036,0.018 -0.062,0.018c-0.013,0 -0.026,-0.002 -0.038,-0.005c-0.012,-0.003 -0.023,-0.008 -0.032,-0.013c-0.009,-0.005 -0.017,-0.012 -0.023,-0.02c-0.006,-0.008 -0.01,-0.016 -0.011,-0.025l-0.116,0Z" style="fill-rule:nonzero;"/></g><g transform="matrix(519.245,0,0,519.245,4072.71,690.714)"></g><rect x="106.318" y="278.777" width="446.383" height="446.383" style="fill:none;stroke:#000;stroke-width:83.7px;"/><rect x="245.812" y="55.586" width="167.394" height="167.394"/><rect x="245.812" y="780.958" width="167.394" height="167.394"/><rect x="245.812" y="418.272" width="167.394" height="167.394"/></svg>